<?xml version="1.0" standalone="no"?>
<!DOCTYPE svg PUBLIC "-//W3C//DTD SVG 1.1//EN" "http://www.w3.org/Graphics/SVG/1.1/DTD/svg11.dtd">
<svg width="164.903652mm" height="49.683843mm"
 viewBox="0 0 164.903652 49.683843"
 xmlns="http://www.w3.org/2000/svg" version="1.1"
 xmlns:xlink="http://www.w3.org/1999/xlink">
<desc>Output from ZoomNotes</desc>

<g id="layer_0">
<path 
style="fill:none;stroke:#120377;stroke-width:0.352778;stroke-opacity:1.000000;stroke-dasharray:none;stroke-dashoffset:0;stroke-linecap:round;stroke-linejoin:miter;stroke-miterlimit:4"
 d="M 31.526661 89.193886 L 31.526661 89.175934 Q 31.526661 89.157982 31.581568 89.074669 Q 31.636477 88.991348 31.678288 88.922752 Q 31.720098 88.854141 31.787170 88.792870 Q 31.854239 88.731598 31.942240 88.777885 Q 32.030239 88.824173 32.086002 88.947006 Q 32.141766 89.069832 32.169621 89.157120 Q 32.197479 89.244415 32.227356 89.345604 Q 32.257236 89.446793 32.279797 89.559357 Q 32.302357 89.671921 32.329826 89.793732 Q 32.357296 89.915558 32.386166 90.031639 Q 32.415035 90.147720 32.436531 90.273422 Q 32.458031 90.399132 32.483948 90.517731 Q 32.509865 90.636337 32.537712 90.752281 Q 32.565563 90.868217 32.585728 90.981293 Q 32.605888 91.094376 32.630489 91.194695 Q 32.655090 91.295006 32.672546 91.387878 Q 32.689999 91.480751 32.703983 91.569283 Q 32.717968 91.657822 32.737865 91.742722 Q 32.757767 91.827621 32.771950 91.900719 Q 32.786133 91.973831 32.806355 92.098030 Q 32.826576 92.222221 32.815434 92.293701 Q 32.804291 92.365189 32.775902 92.467178 L 32.747513 92.569176"
/>
<path 
style="fill:none;stroke:#120377;stroke-width:0.352778;stroke-opacity:1.000000;stroke-dasharray:none;stroke-dashoffset:0;stroke-linecap:round;stroke-linejoin:miter;stroke-miterlimit:4"
 d="M 33.034771 88.116661 L 33.034771 88.098709 Q 33.034771 88.080757 33.009132 87.970070 Q 32.983501 87.859375 32.977116 87.716339 Q 32.970734 87.573311 32.945156 87.420128 Q 32.919579 87.266945 32.876831 87.157623 Q 32.834084 87.048302 32.765564 86.954041 Q 32.697048 86.859779 32.564884 86.776291 Q 32.432720 86.692802 32.322041 86.662773 Q 32.211361 86.632759 32.079006 86.632233 Q 31.946650 86.631714 31.796265 86.673370 Q 31.645878 86.715027 31.493254 86.787727 Q 31.340631 86.860428 31.176058 86.970772 Q 31.011482 87.081116 30.851601 87.240410 Q 30.691721 87.399696 30.611864 87.503319 Q 30.532007 87.606941 30.463400 87.720100 Q 30.394791 87.833252 30.317099 87.996063 Q 30.239407 88.158867 30.174801 88.320915 Q 30.110197 88.482964 30.050394 88.666435 Q 29.990595 88.849899 29.932648 89.079620 Q 29.874701 89.309334 29.824461 89.526199 Q 29.774225 89.743073 29.736702 89.996651 Q 29.699183 90.250237 29.672926 90.498009 Q 29.646669 90.745789 29.627157 91.016304 Q 29.607643 91.286804 29.594824 91.523483 Q 29.582001 91.760155 29.584112 92.007820 Q 29.586220 92.255478 29.609570 92.504929 Q 29.632921 92.754364 29.656824 92.966621 Q 29.680725 93.178886 29.719654 93.397758 Q 29.758587 93.616631 29.804926 93.816658 Q 29.851265 94.016685 29.902422 94.193756 Q 29.953577 94.370819 30.018312 94.523727 Q 30.083044 94.676628 30.146332 94.814980 Q 30.209620 94.953331 30.274244 95.082443 Q 30.338867 95.211533 30.413548 95.323631 Q 30.488228 95.435722 30.568279 95.526588 Q 30.648331 95.617455 30.817801 95.763062 Q 30.987270 95.908669 31.189461 96.000687 Q 31.391657 96.092705 31.508200 96.115196 Q 31.624744 96.137680 31.748821 96.147354 Q 31.872898 96.157021 32.002853 96.146736 Q 32.132812 96.136467 32.281818 96.101318 Q 32.430824 96.066162 32.577858 96.013283 Q 32.724888 95.960411 32.873161 95.893425 Q 33.021439 95.826439 33.160362 95.727989 Q 33.299290 95.629524 33.430569 95.521477 Q 33.561848 95.413414 33.703960 95.280106 Q 33.846077 95.146790 33.964642 95.004280 Q 34.083206 94.861771 34.219852 94.688492 Q 34.356499 94.515205 34.471008 94.332504 Q 34.585514 94.149818 34.702702 93.953720 Q 34.819889 93.757629 34.925270 93.540230 Q 35.030647 93.322838 35.115204 93.095886 Q 35.199764 92.868942 35.283669 92.630943 Q 35.367569 92.392937 35.438194 92.131927 Q 35.508823 91.870918 35.567963 91.619659 Q 35.627106 91.368393 35.667339 91.119026 Q 35.707573 90.869682 35.736320 90.620392 Q 35.765072 90.371109 35.784790 90.141022 Q 35.804504 89.910934 35.818630 89.687004 Q 35.832760 89.463081 35.831799 89.243263 Q 35.830841 89.023445 35.820847 88.823044 Q 35.810848 88.622643 35.784229 88.445450 Q 35.757607 88.268257 35.709824 88.100700 Q 35.662041 87.933144 35.612961 87.801445 Q 35.563881 87.669746 35.486553 87.525421 Q 35.409225 87.381096 35.340199 87.264763 Q 35.271172 87.148438 35.180725 87.040382 Q 35.090279 86.932327 34.989079 86.843887 Q 34.887878 86.755447 34.764355 86.677032 Q 34.640831 86.598618 34.516319 86.541389 Q 34.391808 86.484154 34.249561 86.438828 Q 34.107319 86.393501 33.955006 86.368729 Q 33.802692 86.343956 33.641769 86.343536 Q 33.480846 86.343109 33.312840 86.360435 Q 33.144833 86.377769 32.986675 86.408249 Q 32.828522 86.438721 32.672802 86.489594 Q 32.517082 86.540474 32.363510 86.605507 Q 32.209938 86.670540 32.071754 86.744736 Q 31.933575 86.818939 31.815958 86.899010 Q 31.698338 86.979080 31.580372 87.066490 Q 31.462410 87.153908 31.358961 87.244461 Q 31.255508 87.335007 30.924290 87.618111 L 30.593069 87.901222"
/>
<path 
style="fill:none;stroke:#120377;stroke-width:0.352778;stroke-opacity:1.000000;stroke-dasharray:none;stroke-dashoffset:0;stroke-linecap:round;stroke-linejoin:miter;stroke-miterlimit:4"
 d="M 193.696259 116.290115 L 193.693130 116.290115 Q 193.690033 116.290115 193.689926 116.276268 Q 193.689819 116.262421 193.703171 116.255630 Q 193.716537 116.248848 193.736710 116.240685 Q 193.756912 116.232536 193.781326 116.226830 Q 193.805740 116.221123 193.818481 116.219154 Q 193.831238 116.217178 193.843964 116.215622 Q 193.856689 116.214073 193.869354 116.212860 Q 193.882004 116.211639 193.903137 116.214027 Q 193.924255 116.216423 193.940491 116.224236 Q 193.956741 116.232040 193.966629 116.248116 Q 193.976532 116.264198 193.976959 116.288605 Q 193.977386 116.313011 193.973602 116.325676 Q 193.969833 116.338348 193.964172 116.352570 Q 193.958511 116.366776 193.949615 116.383942 Q 193.940704 116.401108 193.929642 116.416779 Q 193.918564 116.432442 193.907288 116.449265 Q 193.895981 116.466095 193.882507 116.483665 Q 193.869019 116.501236 193.856033 116.519043 Q 193.843079 116.536850 193.828293 116.555168 Q 193.813492 116.573494 193.799866 116.589783 Q 193.786240 116.606071 193.772964 116.621391 Q 193.759689 116.636703 193.746704 116.651245 Q 193.733734 116.665794 193.722717 116.679596 Q 193.711670 116.693405 193.701767 116.705193 Q 193.691864 116.716995 193.682755 116.727654 Q 193.673630 116.738312 193.661194 116.756958 Q 193.648773 116.775604 193.652344 116.790436 Q 193.655930 116.805260 193.670975 116.805275 Q 193.686020 116.805298 193.711365 116.798943 Q 193.736710 116.792603 193.751694 116.788040 Q 193.766708 116.783470 193.784515 116.776794 Q 193.802338 116.770126 193.820084 116.763802 Q 193.837830 116.757477 193.855865 116.751114 Q 193.873932 116.744751 193.890213 116.738533 Q 193.906494 116.732323 193.923737 116.726036 Q 193.940979 116.719757 193.955002 116.715187 Q 193.969040 116.710602 193.983078 116.705391 Q 193.997131 116.700180 194.009216 116.696342 Q 194.021317 116.692520 194.042068 116.685532 Q 194.062805 116.678558 194.077255 116.673454 Q 194.091690 116.668343 194.112274 116.660103 L 194.132874 116.651878"
/>
<path 
style="fill:none;stroke:#120377;stroke-width:0.352778;stroke-opacity:1.000000;stroke-dasharray:none;stroke-dashoffset:0;stroke-linecap:round;stroke-linejoin:miter;stroke-miterlimit:4"
 d="M 185.685867 123.023163 L 185.685867 123.018524 Q 185.685867 123.013878 185.671555 123.014984 Q 185.657227 123.016090 185.658646 123.027786 Q 185.660049 123.039474 185.661407 123.074699 Q 185.662766 123.109924 185.663254 123.131371 Q 185.663757 123.152817 185.664124 123.178032 Q 185.664505 123.203255 185.664810 123.231743 Q 185.665131 123.260231 185.665375 123.291183 Q 185.665634 123.322136 185.665817 123.354919 Q 185.666016 123.387703 185.666168 123.421814 Q 185.666321 123.455925 185.666428 123.490974 Q 185.666534 123.526016 185.666611 123.561729 Q 185.666733 123.597427 185.666794 123.630226 Q 185.666855 123.663002 185.669281 123.691307 Q 185.671722 123.719627 185.673248 123.748329 Q 185.674759 123.777016 185.678314 123.802475 Q 185.681870 123.827927 185.684235 123.851799 Q 185.686615 123.875664 185.690857 123.898399 Q 185.695129 123.921150 185.698074 123.940666 Q 185.701019 123.960190 185.703400 123.979866 Q 185.705780 123.999550 185.712875 124.032051 Q 185.719955 124.064568 185.726440 124.089409 Q 185.732910 124.114273 185.746521 124.107155 L 185.760132 124.100029"
/>
<path 
style="fill:none;stroke:#120377;stroke-width:0.352778;stroke-opacity:1.000000;stroke-dasharray:none;stroke-dashoffset:0;stroke-linecap:round;stroke-linejoin:miter;stroke-miterlimit:4"
 d="M 186.502808 122.206223 L 186.502808 122.196938 Q 186.502808 122.187653 186.482025 122.155220 Q 186.461258 122.122780 186.429657 122.094925 Q 186.398056 122.067078 186.364273 122.052261 Q 186.330490 122.037445 186.288284 122.027092 Q 186.246109 122.016724 186.194580 122.010277 Q 186.143051 122.003815 186.113617 122.001534 Q 186.084213 121.999260 186.052643 121.997467 Q 186.021072 121.995667 185.987854 121.996712 Q 185.954620 121.997765 185.923477 121.998192 Q 185.892319 121.998619 185.858795 122.001465 Q 185.825272 122.004333 185.787216 122.008759 Q 185.749176 122.013184 185.711746 122.021324 Q 185.674332 122.029457 185.633286 122.037704 Q 185.592224 122.045967 185.552841 122.057045 Q 185.513489 122.068130 185.470810 122.081329 Q 185.428146 122.094543 185.387863 122.108894 Q 185.347595 122.123230 185.307709 122.141380 Q 185.267807 122.159546 185.232498 122.176811 Q 185.197174 122.194084 185.163071 122.217171 Q 185.128967 122.240265 185.096710 122.263855 Q 185.064484 122.287453 185.035995 122.314598 Q 185.007507 122.341736 184.980743 122.374474 Q 184.953979 122.407211 184.925064 122.448105 Q 184.896118 122.489006 184.869125 122.538536 Q 184.842102 122.588074 184.813248 122.644196 Q 184.784393 122.700325 184.756912 122.769661 Q 184.729446 122.838989 184.704742 122.909271 Q 184.680069 122.979538 184.660492 123.050865 Q 184.640930 123.122200 184.619614 123.207283 Q 184.598297 123.292366 184.585770 123.367706 Q 184.573257 123.443054 184.564468 123.517998 Q 184.555679 123.592934 184.549637 123.667213 Q 184.543610 123.741508 184.542618 123.815613 Q 184.541595 123.889725 184.546753 123.958389 Q 184.551865 124.027046 184.560867 124.094360 Q 184.569855 124.161674 184.582016 124.233620 Q 184.594177 124.305573 184.607513 124.367950 Q 184.620819 124.430313 184.635452 124.490219 Q 184.650085 124.550117 184.665176 124.603546 Q 184.680283 124.656982 184.699661 124.712906 Q 184.719025 124.768837 184.740189 124.820427 Q 184.761353 124.872017 184.783600 124.917847 Q 184.805832 124.963692 184.829239 125.006744 Q 184.852631 125.049797 184.879456 125.087906 Q 184.906265 125.126022 184.935532 125.161438 Q 184.964767 125.196861 184.999344 125.231033 Q 185.033951 125.265198 185.071213 125.294762 Q 185.108505 125.324326 185.147629 125.348099 Q 185.186752 125.371880 185.231552 125.392624 Q 185.276306 125.413361 185.320511 125.430855 Q 185.364746 125.448349 185.409531 125.463745 Q 185.454330 125.479149 185.499115 125.490173 Q 185.543915 125.501198 185.593460 125.512558 Q 185.643021 125.523926 185.694565 125.531990 Q 185.746109 125.540054 185.794861 125.545898 Q 185.843628 125.551750 185.895721 125.553406 Q 185.947784 125.555061 185.996857 125.553879 Q 186.045929 125.552704 186.090195 125.546860 Q 186.134445 125.541023 186.180740 125.529160 Q 186.227020 125.517303 186.274338 125.498260 Q 186.321640 125.479225 186.365540 125.455681 Q 186.409470 125.432137 186.455826 125.404236 Q 186.502182 125.376328 186.545898 125.342949 Q 186.589630 125.309570 186.628235 125.273232 Q 186.666809 125.236900 186.707230 125.193153 Q 186.747650 125.149422 186.783127 125.106529 Q 186.818619 125.063644 186.853836 125.011566 Q 186.889069 124.959496 186.918350 124.908226 Q 186.947617 124.856949 186.974808 124.799858 Q 187.001984 124.742775 187.023636 124.683647 Q 187.045288 124.624535 187.064224 124.558243 Q 187.083176 124.491951 187.098923 124.427658 Q 187.114655 124.363373 187.128540 124.298866 Q 187.142426 124.234352 187.152222 124.164856 Q 187.162003 124.095352 187.171829 124.028969 Q 187.181625 123.962578 187.188141 123.897011 Q 187.194641 123.831451 187.199295 123.766281 Q 187.203949 123.701103 187.207260 123.636078 Q 187.210556 123.571053 187.212814 123.511185 Q 187.215103 123.451317 187.216782 123.388191 Q 187.218460 123.325073 187.216690 123.266273 Q 187.214951 123.207466 187.211212 123.149796 Q 187.207458 123.092117 187.202209 123.035263 Q 187.196945 122.978409 187.187714 122.921738 Q 187.178452 122.865067 187.166672 122.808548 Q 187.154892 122.752014 187.141220 122.695587 Q 187.127548 122.639175 187.112961 122.587448 Q 187.098373 122.535713 187.082428 122.481392 Q 187.066452 122.427071 187.046600 122.371597 Q 187.026764 122.316147 187.005859 122.268990 Q 186.984924 122.221832 186.961838 122.173698 Q 186.938782 122.125557 186.915115 122.082008 Q 186.891434 122.038460 186.867493 122.000572 Q 186.843567 121.962692 186.819565 121.931168 Q 186.795578 121.899643 186.771072 121.871666 Q 186.746597 121.843681 186.719055 121.820686 Q 186.691498 121.797691 186.665222 121.781006 Q 186.638947 121.764305 186.609589 121.751183 Q 186.580200 121.738060 186.548950 121.727882 Q 186.517731 121.717720 186.485092 121.712318 Q 186.452438 121.706924 186.415146 121.709801 Q 186.377853 121.712662 186.333588 121.719185 Q 186.289337 121.725700 186.240219 121.738464 Q 186.191086 121.751236 186.142471 121.770882 Q 186.093872 121.790520 186.045013 121.815132 Q 185.996185 121.839752 185.948212 121.864792 Q 185.900238 121.889839 185.856018 121.918182 Q 185.811783 121.946541 185.768631 121.980515 Q 185.725479 122.014496 185.684464 122.048546 Q 185.643448 122.082603 185.607193 122.116661 Q 185.570953 122.150719 185.470596 122.243454 L 185.370239 122.336189"
/>
<path 
style="fill:none;stroke:#120377;stroke-width:0.352778;stroke-opacity:1.000000;stroke-dasharray:none;stroke-dashoffset:0;stroke-linecap:round;stroke-linejoin:miter;stroke-miterlimit:4"
 d="M 136.725403 120.869423 L 136.720764 120.869423 Q 136.716125 120.869423 136.720901 120.846375 Q 136.725662 120.823318 136.754547 120.798637 Q 136.783432 120.773941 136.822617 120.748230 Q 136.861801 120.722519 136.910568 120.697868 Q 136.959351 120.673210 137.009308 120.654892 Q 137.059265 120.636574 137.107529 120.626534 Q 137.155807 120.616486 137.200897 120.617630 Q 137.245987 120.618767 137.284271 120.632713 Q 137.322556 120.646652 137.350739 120.671814 Q 137.378906 120.696976 137.396072 120.740143 Q 137.413239 120.783318 137.417801 120.839806 Q 137.422348 120.896294 137.420944 120.928131 Q 137.419525 120.959961 137.413818 120.993538 Q 137.408096 121.027122 137.399124 121.065475 Q 137.390137 121.103836 137.381241 121.144821 Q 137.372314 121.185822 137.360748 121.225266 Q 137.349182 121.264725 137.336273 121.300133 Q 137.323395 121.335533 137.311630 121.371918 Q 137.299850 121.408310 137.289169 121.438133 Q 137.278503 121.467964 137.268372 121.494827 Q 137.258224 121.521675 137.245071 121.562889 Q 137.231918 121.604111 137.226105 121.634392 Q 137.220276 121.664665 137.242188 121.666473 Q 137.264099 121.668274 137.289246 121.646584 Q 137.314392 121.624901 137.341568 121.596046 Q 137.368744 121.567200 137.399994 121.535133 Q 137.431229 121.503059 137.460953 121.475136 Q 137.490692 121.447205 137.517380 121.426636 Q 137.544067 121.406052 137.578690 121.385010 Q 137.613281 121.363968 137.637115 121.340271 Q 137.660934 121.316574 137.685196 121.287949 L 137.709442 121.259323"
/>
<path 
style="fill:none;stroke:#120377;stroke-width:0.352778;stroke-opacity:1.000000;stroke-dasharray:none;stroke-dashoffset:0;stroke-linecap:round;stroke-linejoin:miter;stroke-miterlimit:4"
 d="M 137.895111 119.588318 L 137.885834 119.574402 Q 137.876556 119.560471 137.856247 119.529999 Q 137.835938 119.499542 137.807541 119.466103 Q 137.779160 119.432663 137.737137 119.396118 Q 137.695099 119.359573 137.671158 119.343513 Q 137.647232 119.327461 137.594467 119.305695 Q 137.541702 119.283920 137.514267 119.276527 Q 137.486832 119.269119 137.456436 119.268066 Q 137.426025 119.267014 137.393661 119.270325 Q 137.361282 119.273628 137.327087 119.283073 Q 137.292892 119.292526 137.253754 119.306847 Q 137.214630 119.321175 137.175720 119.341759 Q 137.136826 119.362343 137.098175 119.384445 Q 137.059525 119.406540 137.016693 119.433990 Q 136.973846 119.461433 136.933044 119.491272 Q 136.892242 119.521118 136.855789 119.552284 Q 136.819336 119.583450 136.777130 119.621056 Q 136.734909 119.658676 136.689545 119.703568 Q 136.644196 119.748459 136.601440 119.796524 Q 136.558670 119.844582 136.513138 119.896355 Q 136.467606 119.948128 136.424316 120.004974 Q 136.381012 120.061813 136.336288 120.118057 Q 136.291580 120.174286 136.249161 120.234077 Q 136.206726 120.293877 136.169632 120.354248 Q 136.132523 120.414627 136.101822 120.475311 Q 136.071121 120.536003 136.044006 120.597763 Q 136.016891 120.659531 135.994888 120.726608 Q 135.972885 120.793686 135.954468 120.863541 Q 135.936035 120.933403 135.924011 120.999100 Q 135.911957 121.064804 135.899887 121.135780 Q 135.887802 121.206757 135.879456 121.284676 Q 135.871094 121.362572 135.868774 121.431435 Q 135.866455 121.500282 135.867477 121.573181 Q 135.868515 121.646088 135.875061 121.714081 Q 135.881607 121.782066 135.891281 121.843857 Q 135.900955 121.905640 135.912994 121.965080 Q 135.925049 122.024506 135.941879 122.082985 Q 135.958710 122.141472 135.978027 122.194611 Q 135.997345 122.247757 136.021286 122.295143 Q 136.045242 122.342514 136.073227 122.391068 Q 136.101196 122.439621 136.130310 122.479866 Q 136.159439 122.520096 136.191055 122.560585 Q 136.222672 122.601074 136.255020 122.637001 Q 136.287338 122.672920 136.320038 122.703278 Q 136.352722 122.733635 136.386169 122.760811 Q 136.419617 122.787994 136.457260 122.813499 Q 136.494904 122.839012 136.534500 122.859978 Q 136.574066 122.880936 136.619400 122.899628 Q 136.664749 122.918304 136.709000 122.931496 Q 136.753265 122.944672 136.802505 122.957741 Q 136.851746 122.970802 136.898727 122.979813 Q 136.945694 122.988808 136.992264 122.992836 Q 137.038818 122.996864 137.085236 122.997551 Q 137.131653 122.998245 137.178192 122.993698 Q 137.224716 122.989166 137.275940 122.978027 Q 137.327179 122.966881 137.376389 122.951431 Q 137.425613 122.935974 137.479401 122.913490 Q 137.533188 122.891022 137.584122 122.864731 Q 137.635056 122.838440 137.685074 122.809029 Q 137.735107 122.779617 137.780960 122.745392 Q 137.826797 122.711159 137.866562 122.674423 Q 137.906326 122.637688 137.942856 122.598495 Q 137.979385 122.559296 138.013550 122.518211 Q 138.047729 122.477119 138.081100 122.430595 Q 138.114471 122.384079 138.146713 122.334480 Q 138.178970 122.284889 138.206848 122.234009 Q 138.234726 122.183144 138.263443 122.130096 Q 138.292175 122.077042 138.314163 122.024529 Q 138.336151 121.972015 138.358551 121.913490 Q 138.380966 121.854965 138.401779 121.798744 Q 138.422607 121.742516 138.440247 121.682304 Q 138.457886 121.622086 138.473282 121.560196 Q 138.488678 121.498291 138.502396 121.435181 Q 138.516113 121.372070 138.525864 121.303329 Q 138.535629 121.234589 138.545425 121.168549 Q 138.555237 121.102524 138.561768 121.037140 Q 138.568283 120.971771 138.572952 120.906700 Q 138.577621 120.841621 138.580933 120.776649 Q 138.584259 120.711670 138.586609 120.646706 Q 138.588974 120.581757 138.587631 120.516815 Q 138.586304 120.451874 138.582718 120.386841 Q 138.579132 120.321815 138.570847 120.256508 Q 138.562561 120.191193 138.551666 120.130867 Q 138.540756 120.070549 138.525223 120.016182 Q 138.509705 119.961807 138.490494 119.905472 Q 138.471268 119.849144 138.453247 119.797913 Q 138.435226 119.746674 138.413528 119.692131 Q 138.391815 119.637596 138.368973 119.586845 Q 138.346115 119.536102 138.322662 119.490814 Q 138.299210 119.445518 138.274246 119.398849 Q 138.249298 119.352188 138.221725 119.312698 Q 138.194153 119.273224 138.167587 119.237511 Q 138.141037 119.201813 138.111923 119.171257 Q 138.082809 119.140694 138.055664 119.116783 Q 138.028503 119.092857 137.995331 119.071762 Q 137.962128 119.050644 137.929214 119.035370 Q 137.896301 119.020096 137.859268 119.010674 Q 137.822235 119.001251 137.782654 119.001343 Q 137.743073 119.001427 137.700623 119.010902 Q 137.658157 119.020370 137.612823 119.040100 Q 137.567490 119.059822 137.515060 119.091568 Q 137.462616 119.123306 137.405518 119.167641 Q 137.348404 119.211967 137.289505 119.264488 Q 137.230606 119.317017 137.177719 119.368553 Q 137.124832 119.420082 137.008667 119.532043 L 136.892517 119.644012"
/>
<path 
style="fill:none;stroke:#120377;stroke-width:0.352778;stroke-opacity:1.000000;stroke-dasharray:none;stroke-dashoffset:0;stroke-linecap:round;stroke-linejoin:miter;stroke-miterlimit:4"
 d="M 140.345917 93.019325 L 140.350571 93.019325 Q 140.355209 93.019325 140.373581 93.011925 Q 140.391968 93.004532 140.413086 92.997940 Q 140.434189 92.991356 140.463806 92.983734 Q 140.493423 92.976105 140.524826 92.970169 Q 140.556229 92.964226 140.586334 92.960541 Q 140.616440 92.956848 140.639587 92.962997 Q 140.662720 92.969139 140.680557 92.983582 Q 140.698395 92.998016 140.709183 93.021393 Q 140.719955 93.044754 140.726578 93.073418 Q 140.733200 93.102089 140.731186 93.134026 Q 140.729172 93.165947 140.720810 93.199867 Q 140.712448 93.233803 140.700165 93.266640 Q 140.687881 93.299484 140.675507 93.326668 Q 140.663116 93.353851 140.655670 93.377724 Q 140.648224 93.401581 140.653122 93.422745 Q 140.658035 93.443916 140.678558 93.459129 Q 140.699081 93.474335 140.715790 93.483444 Q 140.732498 93.492538 140.749908 93.500267 Q 140.767334 93.507996 140.785202 93.516289 Q 140.803055 93.524582 140.821182 93.534698 Q 140.839325 93.544815 140.859528 93.560265 Q 140.879730 93.575706 140.895508 93.596504 Q 140.911285 93.617302 140.912628 93.644081 Q 140.913971 93.670853 140.902023 93.690849 Q 140.890060 93.710838 140.873428 93.734093 Q 140.856781 93.757339 140.832108 93.778587 Q 140.807434 93.799843 140.777954 93.820061 Q 140.748474 93.840279 140.695724 93.875404 L 140.642990 93.910522"
/>
<path 
style="fill:none;stroke:#120377;stroke-width:0.352778;stroke-opacity:1.000000;stroke-dasharray:none;stroke-dashoffset:0;stroke-linecap:round;stroke-linejoin:miter;stroke-miterlimit:4"
 d="M 140.828659 92.350922 L 140.819382 92.350922 Q 140.810089 92.350922 140.776199 92.340004 Q 140.742310 92.329086 140.701797 92.325134 Q 140.661285 92.321175 140.625488 92.319756 Q 140.589691 92.318329 140.548355 92.317459 Q 140.507019 92.316589 140.463699 92.316048 Q 140.420364 92.315514 140.379608 92.315178 Q 140.338867 92.314842 140.299530 92.320732 Q 140.260178 92.326622 140.223129 92.339684 Q 140.186081 92.352737 140.147583 92.375244 Q 140.109100 92.397728 140.070801 92.432213 Q 140.032501 92.466705 140.010468 92.487961 Q 139.988419 92.509224 139.966675 92.537872 Q 139.944931 92.566505 139.923706 92.597000 Q 139.902481 92.627472 139.884048 92.662811 Q 139.865601 92.698143 139.846725 92.733597 Q 139.827835 92.769058 139.811371 92.808212 Q 139.794907 92.847366 139.780411 92.885010 Q 139.765915 92.922653 139.751984 92.967537 Q 139.738052 93.012421 139.728180 93.056656 Q 139.718307 93.100899 139.708374 93.142227 Q 139.698456 93.183548 139.691254 93.227028 Q 139.684082 93.270515 139.678604 93.314850 Q 139.673141 93.359192 139.669144 93.400352 Q 139.665161 93.441505 139.664749 93.481308 Q 139.664337 93.521103 139.668762 93.560097 Q 139.673187 93.599075 139.678375 93.637505 Q 139.683594 93.675926 139.692398 93.714180 Q 139.701218 93.752426 139.712082 93.787041 Q 139.722946 93.821655 139.735535 93.854477 Q 139.748108 93.887314 139.764648 93.919159 Q 139.781204 93.950996 139.798096 93.984917 Q 139.815002 94.018845 139.834854 94.050873 Q 139.854691 94.082886 139.875977 94.110901 Q 139.897278 94.138916 139.917572 94.167206 Q 139.937866 94.195503 139.960114 94.220947 Q 139.982376 94.246391 140.005798 94.270256 Q 140.029221 94.294113 140.050446 94.313560 Q 140.071655 94.333015 140.094772 94.350311 Q 140.117874 94.367615 140.141937 94.383087 Q 140.165985 94.398560 140.193832 94.412964 Q 140.221680 94.427368 140.248657 94.437973 Q 140.275620 94.448563 140.305771 94.457024 Q 140.335907 94.465500 140.364746 94.471939 Q 140.393600 94.478371 140.425308 94.483490 Q 140.456985 94.488602 140.486908 94.490067 Q 140.516815 94.491531 140.546249 94.490662 Q 140.575668 94.489777 140.628738 94.482910 Q 140.681793 94.476028 140.729294 94.464752 Q 140.776779 94.453484 140.820328 94.437088 Q 140.863861 94.420677 140.901169 94.399902 Q 140.938477 94.379135 140.969803 94.351868 Q 141.001144 94.324608 141.031372 94.293533 Q 141.061615 94.262466 141.090942 94.226746 Q 141.120255 94.191025 141.149094 94.149635 Q 141.177933 94.108253 141.206772 94.061958 Q 141.235596 94.015678 141.260269 93.967079 Q 141.284912 93.918480 141.296371 93.892082 Q 141.307831 93.865685 141.318832 93.838844 Q 141.329834 93.812019 141.340698 93.781914 Q 141.351562 93.751816 141.361954 93.722900 Q 141.372345 93.693977 141.380188 93.662392 Q 141.388031 93.630806 141.394028 93.600945 Q 141.400024 93.571091 141.407074 93.541641 Q 141.414124 93.512199 141.419296 93.480209 Q 141.424484 93.448212 141.428467 93.418007 Q 141.432449 93.387787 141.435593 93.355026 Q 141.438751 93.322266 141.441132 93.291527 Q 141.443527 93.260780 141.442963 93.227623 Q 141.442383 93.194466 141.442322 93.163437 Q 141.442245 93.132408 141.439682 93.098969 Q 141.437119 93.065529 141.435547 93.034340 Q 141.433975 93.003151 141.430206 92.969559 Q 141.426453 92.935982 141.421555 92.904625 Q 141.416641 92.873276 141.408310 92.842628 Q 141.399963 92.811981 141.391846 92.782173 Q 141.383713 92.752373 141.373032 92.725906 Q 141.362350 92.699448 141.352310 92.672165 Q 141.342285 92.644882 141.316650 92.596954 Q 141.291016 92.549011 141.261063 92.505463 Q 141.231110 92.461906 141.198700 92.425064 Q 141.166306 92.388222 141.132080 92.360924 Q 141.097855 92.333633 141.062515 92.315552 Q 141.027176 92.297485 140.985046 92.294754 Q 140.942917 92.292007 140.887802 92.311485 Q 140.832687 92.330963 140.796387 92.353203 Q 140.760071 92.375443 140.715118 92.406006 Q 140.670166 92.436562 140.554459 92.514420 L 140.438751 92.592293"
/>
<path 
style="fill:none;stroke:#120377;stroke-width:0.352778;stroke-opacity:1.000000;stroke-dasharray:none;stroke-dashoffset:0;stroke-linecap:round;stroke-linejoin:miter;stroke-miterlimit:4"
 d="M 160.620789 77.237602 L 160.616150 77.232956 Q 160.611511 77.228317 160.587952 77.238594 Q 160.564392 77.248871 160.555084 77.273117 Q 160.545792 77.297371 160.538818 77.324257 Q 160.531845 77.351143 160.527527 77.380753 Q 160.523209 77.410362 160.520554 77.442833 Q 160.517899 77.475311 160.522354 77.503487 Q 160.526810 77.531654 160.539001 77.559929 Q 160.551178 77.588203 160.570801 77.608780 Q 160.590424 77.629356 160.615570 77.643250 Q 160.640717 77.657150 160.672775 77.663414 Q 160.704819 77.669678 160.740036 77.666222 Q 160.775269 77.662758 160.811249 77.651161 Q 160.847244 77.639565 160.865417 77.632034 Q 160.883591 77.624504 160.899521 77.614220 Q 160.915466 77.603928 160.932343 77.591919 Q 160.949219 77.579903 160.977798 77.555702 Q 161.006363 77.531494 161.028809 77.505890 Q 161.051239 77.480286 161.068649 77.456139 Q 161.086060 77.431992 161.100327 77.409958 Q 161.114624 77.387932 161.126175 77.369400 Q 161.137711 77.350868 161.145630 77.359093 Q 161.153534 77.367325 161.158203 77.392738 Q 161.162888 77.418152 161.165741 77.453735 Q 161.168625 77.489326 161.169617 77.511002 Q 161.170593 77.532669 161.171371 77.558113 Q 161.172150 77.583565 161.172760 77.609283 Q 161.173370 77.635002 161.175583 77.724083 L 161.177795 77.813164"
/>
<path 
style="fill:none;stroke:#120377;stroke-width:0.352778;stroke-opacity:1.000000;stroke-dasharray:none;stroke-dashoffset:0;stroke-linecap:round;stroke-linejoin:miter;stroke-miterlimit:4"
 d="M 161.270630 76.662033 L 161.270630 76.657387 Q 161.270630 76.652748 161.270630 76.624756 Q 161.270630 76.596764 161.270630 76.565491 Q 161.270630 76.534210 161.259567 76.508209 Q 161.248520 76.482208 161.217728 76.460213 Q 161.186935 76.438225 161.152679 76.423958 Q 161.118408 76.409691 161.073593 76.397316 Q 161.028778 76.384933 160.972153 76.373428 Q 160.915527 76.361923 160.882812 76.358009 Q 160.850098 76.354095 160.812561 76.350967 Q 160.775024 76.347847 160.741669 76.348022 Q 160.708313 76.348198 160.673080 76.350418 Q 160.637833 76.352654 160.602066 76.356560 Q 160.566299 76.360466 160.533249 76.368027 Q 160.500183 76.375580 160.465088 76.385818 Q 160.429993 76.396065 160.394135 76.408394 Q 160.358261 76.420731 160.321793 76.434662 Q 160.285324 76.448593 160.248062 76.466476 Q 160.210800 76.484375 160.173172 76.504868 Q 160.135529 76.525368 160.097702 76.547874 Q 160.059875 76.570381 160.022018 76.594353 Q 159.984146 76.618324 159.949219 76.645851 Q 159.914307 76.673370 159.884918 76.699577 Q 159.855530 76.725784 159.825394 76.755714 Q 159.795227 76.785652 159.768646 76.816956 Q 159.742065 76.848244 159.719788 76.883797 Q 159.697525 76.919350 159.675873 76.954811 Q 159.654205 76.990265 159.636215 77.025703 Q 159.618225 77.061142 159.605057 77.096436 Q 159.591873 77.131729 159.581818 77.167290 Q 159.571777 77.202843 159.561264 77.242477 Q 159.550766 77.282112 159.543121 77.323723 Q 159.535477 77.365334 159.532013 77.416550 Q 159.528534 77.467766 159.528442 77.515694 Q 159.528336 77.563614 159.530685 77.615517 Q 159.533035 77.667404 159.540085 77.720955 Q 159.547134 77.774513 159.557343 77.829277 Q 159.567551 77.884041 159.582657 77.935371 Q 159.597763 77.986702 159.616745 78.041191 Q 159.635727 78.095688 159.660614 78.151764 Q 159.685501 78.207848 159.709381 78.254951 Q 159.733261 78.302055 159.765182 78.351639 Q 159.797104 78.401222 159.828201 78.441544 Q 159.859314 78.481865 159.892456 78.522346 Q 159.925583 78.562828 159.961655 78.595894 Q 159.997726 78.628952 160.032135 78.654480 Q 160.066544 78.680008 160.101700 78.704239 Q 160.136856 78.728470 160.174820 78.745865 Q 160.212799 78.763245 160.249756 78.778915 Q 160.286713 78.794586 160.326828 78.806229 Q 160.366959 78.817871 160.408905 78.826790 Q 160.450836 78.835701 160.494217 78.842461 Q 160.537567 78.849220 160.578094 78.854172 Q 160.618622 78.859123 160.661728 78.860321 Q 160.704834 78.861534 160.745209 78.860199 Q 160.785583 78.858864 160.825134 78.853035 Q 160.864685 78.847214 160.900101 78.838577 Q 160.935501 78.829948 160.972305 78.818817 Q 161.009094 78.807686 161.043015 78.792374 Q 161.076920 78.777054 161.112900 78.758369 Q 161.148895 78.739685 161.182129 78.718987 Q 161.215347 78.698296 161.247894 78.672935 Q 161.280411 78.647575 161.312103 78.619118 Q 161.343765 78.590660 161.371552 78.560410 Q 161.399338 78.530159 161.424347 78.501472 Q 161.449371 78.472786 161.473648 78.438080 Q 161.497940 78.403374 161.521164 78.365273 Q 161.544418 78.327171 161.563812 78.287010 Q 161.583221 78.246834 161.603683 78.200462 Q 161.624146 78.154083 161.644470 78.104301 Q 161.664795 78.054504 161.681900 78.002983 Q 161.698990 77.951447 161.714111 77.898521 Q 161.729248 77.845596 161.742844 77.791756 Q 161.756439 77.737907 161.765656 77.688225 Q 161.774872 77.638550 161.781906 77.585869 Q 161.788925 77.533180 161.793930 77.483894 Q 161.798935 77.434616 161.802750 77.382042 Q 161.806549 77.329475 161.806534 77.280228 Q 161.806503 77.230980 161.801300 77.178215 Q 161.796097 77.125458 161.790298 77.075966 Q 161.784500 77.026489 161.772507 76.981583 Q 161.760544 76.936684 161.747162 76.890373 Q 161.733810 76.844063 161.719788 76.805389 Q 161.705765 76.766716 161.687271 76.723419 Q 161.668762 76.680115 161.648666 76.643005 Q 161.628571 76.605896 161.606735 76.571175 Q 161.584900 76.536453 161.562256 76.506905 Q 161.539612 76.477348 161.515503 76.447510 Q 161.491409 76.417664 161.467346 76.394386 Q 161.443253 76.371117 161.418213 76.348366 Q 161.393158 76.325607 161.365326 76.309036 Q 161.337494 76.292465 161.307190 76.276894 Q 161.276871 76.261322 161.245041 76.249779 Q 161.213226 76.238235 161.176880 76.231583 Q 161.140533 76.224930 161.097443 76.224457 Q 161.054367 76.223999 161.002289 76.228462 Q 160.950226 76.232933 160.891724 76.247437 Q 160.833237 76.261932 160.689896 76.294884 L 160.546539 76.327835"
/>
</g>
</svg>